<svg width="156" height="49" viewBox="0 0 156 49" fill="none" xmlns="http://www.w3.org/2000/svg">
<path d="M55.6304 34.9551L46.9824 26.3021V14.7891V13.3521H50.5844V24.7921L59.2284 33.4351V45.912V47.342H55.6304V34.9551Z" fill="white"/>
<path d="M12.441 16.1982C11.428 14.2782 9.322 12.9922 7.049 12.9922C4.939 12.9922 2.956 14.0922 1.872 15.7882C1.197 16.9532 1 17.8552 1 20.1452V21.8822H4.596V19.9392C4.596 17.6342 5.369 16.6072 7.05 16.6072C8.746 16.6072 9.521 17.6342 9.521 19.9392V25.4652L7.05 25.4852H6.986C4.939 25.4852 2.957 26.6482 1.873 28.3482C1.197 29.5092 1 30.4082 1 32.6412V40.2502C1 42.2482 1.121 43.0902 1.669 44.1112C2.693 46.0932 4.742 47.3262 7.05 47.3262L11.695 47.3422H13.125V45.9322V20.1452C13.124 18.0622 12.977 17.2172 12.441 16.1982ZM9.521 43.7222L7.05 43.7442C5.369 43.7442 4.596 42.7612 4.596 40.4732V32.4372C4.596 30.1242 5.369 29.0782 7.05 29.0782L9.521 29.0622V43.7222Z" fill="#AF272F"/>
<path d="M154.999 21.8818V20.1448C154.999 17.8558 154.791 16.9538 154.117 15.7888C153.034 14.0928 151.054 12.9858 148.916 12.9858C146.679 12.9858 144.567 14.2788 143.541 16.2048C143.015 17.2178 142.863 18.0618 142.863 20.1448V24.4408C142.863 26.6478 143.13 27.5448 143.829 28.7148C144.913 30.4358 146.892 31.5748 148.916 31.5748C150.618 31.5748 151.4 32.6188 151.4 34.9128V40.7958V40.7748C151.4 43.0698 150.618 44.1118 148.916 44.1118C147.245 44.1118 146.467 43.0698 146.467 40.7748V38.8178H142.863V40.5548C142.863 42.8438 143.069 43.7668 143.75 44.9078C144.829 46.6278 146.819 47.7118 148.916 47.7118C151.187 47.7118 153.302 46.4218 154.323 44.4988C154.847 43.4798 154.999 42.6448 154.999 40.5558V35.1178C154.999 32.9088 154.791 32.0088 154.117 30.8448C153.034 29.1278 151.054 27.9818 149.004 27.9818C147.313 27.9818 146.467 26.9358 146.467 24.6458V19.9468C146.467 17.6278 147.245 16.6098 148.916 16.6098C150.618 16.6098 151.4 17.6278 151.4 19.9468V21.8848H154.999V21.8818Z" fill="white"/>
<path d="M74.8152 16.1982C73.7942 14.2782 71.6872 12.9922 69.4392 12.9922C67.3102 12.9922 65.3262 14.0922 64.2442 15.7882C63.5652 16.9532 63.3652 17.8552 63.3652 20.1442V21.8812H66.9652V19.9382C66.9652 17.6332 67.7372 16.6062 69.4402 16.6062C71.1132 16.6062 71.8922 17.6332 71.8922 19.9382V25.4642L69.4402 25.4842H69.3532C67.3112 25.4842 65.3272 26.6472 64.2452 28.3472C63.5662 29.5082 63.3662 30.4082 63.3662 32.6402V40.2492C63.3662 42.2472 63.5072 43.0892 64.0412 44.1102C65.0622 46.0922 67.1052 47.3252 69.4402 47.3252L74.0582 47.3412H75.4902V45.9312V20.1452C75.4892 18.0622 75.3642 17.2172 74.8152 16.1982ZM71.8922 43.7222L69.4402 43.7442C67.7382 43.7442 66.9652 42.7612 66.9652 40.4732V32.4372C66.9652 30.1242 67.7372 29.0782 69.4402 29.0782L71.8922 29.0622V43.7222Z" fill="white"/>
<path d="M105.264 1.31406V13.3341L102.788 13.3601H102.721C100.683 13.3601 98.7031 14.5011 97.6161 16.2161C96.9461 17.3831 96.7461 18.2831 96.7461 20.4951V40.2501C96.7461 42.2561 96.8561 43.0901 97.4171 44.1111C98.4391 46.0931 100.478 47.3261 102.789 47.3261L107.438 47.3421H108.857V33.8021V1.28906L105.264 1.31406ZM105.264 43.7221L102.788 43.7441C101.112 43.7441 100.338 42.7611 100.338 40.4761V20.2901C100.338 17.9951 101.112 16.9531 102.788 16.9531L105.264 16.9331V43.7221Z" fill="white"/>
<path d="M21.6877 45.912V47.342H18.0938V45.912V2.78598V1.35498H21.6877V45.912Z" fill="#AF272F"/>
<path d="M31.6462 31.6198H37.6992V20.1448C37.6992 18.0618 37.5842 17.2168 37.0232 16.2048C36.0042 14.2788 33.8962 12.9858 31.6462 12.9858C29.5432 12.9858 27.5592 14.0918 26.4552 15.7888C25.7832 16.9538 25.5742 17.8558 25.5742 20.1448V40.6388C25.5742 42.6438 25.7172 43.4798 26.2502 44.4978C27.2732 46.4808 29.3162 47.7108 31.6462 47.7108C33.7512 47.7108 35.7382 46.6268 36.8252 44.9068C37.5012 43.7658 37.6992 42.8438 37.6992 40.6378V38.8988H34.1052V40.8418C34.1052 43.1258 33.3292 44.1108 31.6462 44.1108C29.9552 44.1108 29.1772 43.1268 29.1772 40.8418V31.6198H31.6462ZM29.1772 19.9438C29.1772 17.6518 29.9542 16.6068 31.6462 16.6068C33.3292 16.6068 34.1052 17.6518 34.1052 19.9438V27.9978H31.6462H29.1772V19.9438Z" fill="#AF272F"/>
<path d="M83.9774 16.897V47.341H80.3594V45.911V14.828V13.334H81.7894H86.4314C88.7624 13.334 90.8104 14.54 91.8144 16.524C92.3664 17.55 92.5084 18.385 92.5084 20.455V45.912V47.342H88.8904V20.246C88.8904 17.979 88.1244 16.933 86.4314 16.933L83.9774 16.897Z" fill="white"/>
<path d="M118.982 31.6198H125.031V20.1448C125.031 18.0618 124.916 17.2168 124.361 16.2048C123.336 14.2788 121.23 12.9858 118.982 12.9858C116.879 12.9858 114.894 14.0918 113.812 15.7888C113.118 16.9538 112.912 17.8558 112.912 20.1448V40.6388C112.912 42.6438 113.05 43.4798 113.613 44.4978C114.614 46.4808 116.651 47.7108 118.982 47.7108C121.095 47.7108 123.072 46.6268 124.158 44.9068C124.847 43.7658 125.031 42.8438 125.031 40.6378V38.8988H121.438V40.8418C121.438 43.1258 120.664 44.1108 118.982 44.1108C117.286 44.1108 116.503 43.1268 116.503 40.8418V31.6198H118.982ZM116.503 19.9438C116.503 17.6518 117.286 16.6068 118.982 16.6068C120.664 16.6068 121.438 17.6518 121.438 19.9438V27.9978H118.982H116.503V19.9438Z" fill="white"/>
<path d="M137.762 20.246V21.825H141.36V20.455C141.36 18.389 141.214 17.542 140.683 16.524C139.663 14.54 137.609 13.334 135.283 13.334H130.641H129.23V14.83V45.912V47.342H132.83V16.897L135.283 16.933C136.977 16.934 137.762 17.979 137.762 20.246Z" fill="white"/>
<path d="M50.5466 34.9551L41.8926 26.3021V14.7891V13.3521H45.4936V24.7921L54.1396 33.4351V45.912V47.342H50.5466V34.9551Z" fill="#AF272F"/>
<path d="M45.4936 34.9551L54.1436 26.3021V14.7891V13.3521H50.5466V24.7921L41.8926 33.4351V45.912V47.342H45.4936V34.9551Z" fill="#AF272F"/>
<path d="M50.5843 34.9551L59.2333 26.3021V14.7891V13.3521H55.6303V24.7921L46.9883 33.4351V45.912V47.342H50.5843V34.9551Z" fill="white"/>
</svg>
