<svg width="200" height="78" viewBox="0 0 200 78" fill="none" xmlns="http://www.w3.org/2000/svg">
<g clip-path="url(#clip0_151_335)">
<path d="M17.7386 73H1.92045L37.6136 3.18182H56.6364L69.1136 73H53.2955L44.8068 19.1364H44.2614L17.7386 73ZM21.3523 45.5568H58.7159L56.7386 57.0795H19.375L21.3523 45.5568ZM121.98 23.4659C122.094 20.625 121.264 18.4318 119.491 16.8864C117.741 15.3409 115.094 14.5682 111.548 14.5682C109.139 14.5682 107.048 14.9091 105.276 15.5909C103.503 16.25 102.082 17.1705 101.014 18.3523C99.9688 19.5114 99.321 20.8523 99.071 22.375C98.821 23.625 98.9006 24.7159 99.3097 25.6477C99.7415 26.5795 100.412 27.3864 101.321 28.0682C102.253 28.7273 103.355 29.3068 104.628 29.8068C105.901 30.2841 107.253 30.6932 108.685 31.0341L114.685 32.5341C117.616 33.2159 120.253 34.125 122.594 35.2614C124.957 36.3977 126.935 37.7955 128.526 39.4545C130.139 41.1136 131.276 43.0682 131.935 45.3182C132.594 47.5682 132.685 50.1477 132.207 53.0568C131.48 57.3295 129.787 61.0341 127.128 64.1705C124.469 67.2841 120.98 69.7045 116.662 71.4318C112.344 73.1364 107.344 73.9886 101.662 73.9886C96.0256 73.9886 91.2642 73.125 87.3778 71.3977C83.4915 69.6705 80.6619 67.1136 78.8892 63.7273C77.1392 60.3182 76.6165 56.1023 77.321 51.0795H91.6051C91.3551 53.4205 91.696 55.375 92.6278 56.9432C93.5824 58.4886 95.0028 59.6591 96.8892 60.4545C98.7756 61.2273 100.991 61.6136 103.537 61.6136C106.06 61.6136 108.298 61.25 110.253 60.5227C112.23 59.7955 113.832 58.7841 115.06 57.4886C116.287 56.1932 117.037 54.7045 117.31 53.0227C117.582 51.4545 117.344 50.1364 116.594 49.0682C115.844 48 114.639 47.0909 112.98 46.3409C111.344 45.5682 109.31 44.8864 106.878 44.2955L99.5824 42.3864C93.946 40.9545 89.6847 38.7159 86.7983 35.6705C83.9119 32.625 82.8778 28.5227 83.696 23.3636C84.4233 19.1364 86.1847 15.4432 88.9801 12.2841C91.7983 9.10227 95.3438 6.63636 99.6165 4.88636C103.912 3.11363 108.605 2.22727 113.696 2.22727C118.878 2.22727 123.253 3.125 126.821 4.92045C130.389 6.69318 132.991 9.17045 134.628 12.3523C136.264 15.5341 136.764 19.2386 136.128 23.4659H121.98ZM138.83 73L150.42 3.18182H197.466L195.42 15.3523H163.136L160.409 31.9886H190.273L188.227 44.1591H158.364L155.636 60.8295H188.057L186.011 73H138.83Z" fill="white"/>
</g>
<defs>
<clipPath id="clip0_151_335">
<rect width="200" height="78" fill="white"/>
</clipPath>
</defs>
</svg>
