<svg width="11" height="11" viewBox="0 0 11 11" fill="none" xmlns="http://www.w3.org/2000/svg">
<path d="M8.14815 4.58083L11 0.0775263C11 0.0775263 1.22222 -0.741299 1.22222 2.94326C1.22222 7.21866 8.55556 4.99026 8.55556 7.85595C8.55556 10.7217 1.62963 9.90291 1.62963 9.90291L2.85185 7.85595C2.85185 7.85595 6.11111 7.85595 5.7037 7.03717C5.7037 7.03717 4.07407 7.03732 2.85185 6.62778L0 10.7217C0 10.7217 9.69405 12.2196 9.77778 8.26534C9.77778 3.35265 2.97349 6.66681 2.44444 3.35265C2.03704 0.486951 9.37037 1.3057 9.37037 1.3057L8.14815 3.35265C8.14815 3.35265 4.88889 2.94341 5.2963 4.17143L8.14815 4.58083Z" fill="#2563EB"/>
</svg>
