<svg width="10" height="10" viewBox="0 0 10 10" fill="none" xmlns="http://www.w3.org/2000/svg">
<path d="M7.40741 4.16439L10 0.0704785C10 0.0704785 1.11111 -0.673908 1.11111 2.67569C1.11111 6.56242 7.77778 4.5366 7.77778 7.14177C7.77778 9.74703 1.48148 9.00264 1.48148 9.00264L2.59259 7.14177C2.59259 7.14177 5.55556 7.14177 5.18518 6.39743C5.18518 6.39743 3.7037 6.39756 2.59259 6.02525L0 9.74699C0 9.74699 8.81277 11.1087 8.88889 7.51395C8.88889 3.04787 2.70317 6.06074 2.22222 3.04787C1.85185 0.442683 8.51852 1.187 8.51852 1.187L7.40741 3.04787C7.40741 3.04787 4.44444 2.67583 4.81481 3.79221L7.40741 4.16439Z" fill="white"/>
</svg>
