<svg width="131" height="22" viewBox="0 0 131 22" fill="none" xmlns="http://www.w3.org/2000/svg">
<path d="M46.659 9V3.39H44.459V2.14H50.369V3.39H48.159V9H46.659ZM51.2552 9V1.77H52.6452V4.32H52.7152C52.8286 4.18 52.9619 4.06 53.1152 3.96C53.2752 3.85333 53.4519 3.77 53.6452 3.71C53.8452 3.65 54.0619 3.62 54.2952 3.62C54.6419 3.62 54.9452 3.68333 55.2052 3.81C55.4652 3.93667 55.6652 4.13667 55.8052 4.41C55.9519 4.68333 56.0252 5.04 56.0252 5.48V9H54.6352V5.7C54.6352 5.53333 54.6152 5.39333 54.5752 5.28C54.5352 5.16 54.4752 5.06333 54.3952 4.99C54.3219 4.91 54.2286 4.85333 54.1152 4.82C54.0019 4.78667 53.8752 4.77 53.7352 4.77C53.5286 4.77 53.3419 4.82 53.1752 4.92C53.0086 5.02 52.8786 5.15667 52.7852 5.33C52.6919 5.50333 52.6452 5.70333 52.6452 5.93V9H51.2552ZM59.6609 9.12C59.0809 9.12 58.5942 9.02333 58.2009 8.83C57.8075 8.63 57.5109 8.32667 57.3109 7.92C57.1109 7.51333 57.0109 6.99667 57.0109 6.37C57.0109 5.73667 57.1109 5.22 57.3109 4.82C57.5109 4.41333 57.8042 4.11333 58.1909 3.92C58.5842 3.72 59.0642 3.62 59.6309 3.62C60.1642 3.62 60.6142 3.71667 60.9809 3.91C61.3475 4.09667 61.6242 4.39 61.8109 4.79C61.9975 5.18333 62.0909 5.69333 62.0909 6.32V6.68H58.4209C58.4342 6.98667 58.4809 7.24667 58.5609 7.46C58.6475 7.67333 58.7775 7.83333 58.9509 7.94C59.1309 8.04 59.3675 8.09 59.6609 8.09C59.8209 8.09 59.9642 8.07 60.0909 8.03C60.2242 7.99 60.3375 7.93 60.4309 7.85C60.5242 7.77 60.5975 7.67 60.6509 7.55C60.7042 7.43 60.7309 7.29333 60.7309 7.14H62.0909C62.0909 7.47333 62.0309 7.76333 61.9109 8.01C61.7909 8.25667 61.6242 8.46333 61.4109 8.63C61.1975 8.79 60.9409 8.91333 60.6409 9C60.3475 9.08 60.0209 9.12 59.6609 9.12ZM58.4409 5.8H60.6609C60.6609 5.6 60.6342 5.42667 60.5809 5.28C60.5342 5.13333 60.4675 5.01333 60.3809 4.92C60.2942 4.82667 60.1875 4.76 60.0609 4.72C59.9409 4.67333 59.8042 4.65 59.6509 4.65C59.3975 4.65 59.1842 4.69333 59.0109 4.78C58.8442 4.86 58.7142 4.98667 58.6209 5.16C58.5342 5.32667 58.4742 5.54 58.4409 5.8ZM63.1107 9V3.74H64.2607L64.3707 4.56H64.4407C64.5074 4.38667 64.594 4.23 64.7007 4.09C64.8074 3.94333 64.9407 3.82667 65.1007 3.74C65.2607 3.65333 65.4474 3.61 65.6607 3.61C65.774 3.61 65.8774 3.62333 65.9707 3.65C66.064 3.67 66.134 3.69 66.1807 3.71V4.97H65.7507C65.544 4.97 65.3607 5 65.2007 5.06C65.0474 5.11333 64.9174 5.2 64.8107 5.32C64.704 5.44 64.624 5.58667 64.5707 5.76C64.524 5.93333 64.5007 6.13667 64.5007 6.37V9H63.1107ZM66.9095 9V3.74H68.0595L68.1695 4.46H68.2395C68.3529 4.28667 68.4862 4.13667 68.6395 4.01C68.7995 3.88333 68.9762 3.78667 69.1695 3.72C69.3695 3.65333 69.5829 3.62 69.8095 3.62C70.1429 3.62 70.4295 3.68667 70.6695 3.82C70.9162 3.95333 71.1062 4.16667 71.2395 4.46H71.3095C71.4229 4.28667 71.5595 4.13667 71.7195 4.01C71.8795 3.88333 72.0629 3.78667 72.2695 3.72C72.4762 3.65333 72.6962 3.62 72.9295 3.62C73.2629 3.62 73.5495 3.68 73.7895 3.8C74.0362 3.92 74.2295 4.11667 74.3695 4.39C74.5095 4.65667 74.5795 5.00333 74.5795 5.43V9H73.1895V5.68C73.1895 5.51333 73.1695 5.37333 73.1295 5.26C73.0962 5.14 73.0462 5.04667 72.9795 4.98C72.9129 4.90667 72.8295 4.85333 72.7295 4.82C72.6295 4.78667 72.5229 4.77 72.4095 4.77C72.2229 4.77 72.0562 4.82 71.9095 4.92C71.7629 5.02 71.6462 5.15667 71.5595 5.33C71.4795 5.50333 71.4395 5.70333 71.4395 5.93V9H70.0495V5.68C70.0495 5.51333 70.0295 5.37333 69.9895 5.26C69.9562 5.14 69.9062 5.04667 69.8395 4.98C69.7729 4.90667 69.6895 4.85333 69.5895 4.82C69.4962 4.78667 69.3895 4.77 69.2695 4.77C69.0895 4.77 68.9229 4.82 68.7695 4.92C68.6229 5.02 68.5062 5.15667 68.4195 5.33C68.3395 5.50333 68.2995 5.70333 68.2995 5.93V9H66.9095ZM78.2358 9.12C77.6624 9.12 77.1758 9.02333 76.7758 8.83C76.3758 8.63 76.0724 8.32667 75.8658 7.92C75.6591 7.50667 75.5558 6.99 75.5558 6.37C75.5558 5.73667 75.6591 5.22 75.8658 4.82C76.0724 4.41333 76.3758 4.11333 76.7758 3.92C77.1758 3.72 77.6624 3.62 78.2358 3.62C78.8224 3.62 79.3124 3.72 79.7058 3.92C80.1058 4.11333 80.4091 4.41333 80.6158 4.82C80.8224 5.22 80.9258 5.73667 80.9258 6.37C80.9258 6.99 80.8224 7.50667 80.6158 7.92C80.4091 8.32667 80.1058 8.63 79.7058 8.83C79.3124 9.02333 78.8224 9.12 78.2358 9.12ZM78.2358 8.04C78.5424 8.04 78.7858 7.98333 78.9658 7.87C79.1524 7.75667 79.2891 7.58333 79.3758 7.35C79.4624 7.11667 79.5058 6.83 79.5058 6.49V6.25C79.5058 5.91 79.4624 5.62333 79.3758 5.39C79.2891 5.15667 79.1524 4.98333 78.9658 4.87C78.7858 4.75 78.5424 4.69 78.2358 4.69C77.9358 4.69 77.6924 4.75 77.5058 4.87C77.3258 4.98333 77.1924 5.15667 77.1058 5.39C77.0191 5.62333 76.9758 5.91 76.9758 6.25V6.49C76.9758 6.83 77.0191 7.11667 77.1058 7.35C77.1924 7.58333 77.3258 7.75667 77.5058 7.87C77.6924 7.98333 77.9358 8.04 78.2358 8.04ZM84.0786 9.12C83.7119 9.12 83.3819 9.08 83.0886 9C82.7953 8.92 82.5453 8.81 82.3386 8.67C82.1319 8.52333 81.9719 8.35 81.8586 8.15C81.7519 7.95 81.6986 7.72333 81.6986 7.47C81.6986 7.44333 81.6986 7.41667 81.6986 7.39C81.6986 7.36333 81.7019 7.34333 81.7086 7.33H83.0486C83.0486 7.34333 83.0486 7.35667 83.0486 7.37C83.0486 7.38333 83.0486 7.39667 83.0486 7.41C83.0553 7.57667 83.1086 7.71333 83.2086 7.82C83.3086 7.92 83.4386 7.99333 83.5986 8.04C83.7653 8.08667 83.9386 8.11 84.1186 8.11C84.2786 8.11 84.4319 8.09667 84.5786 8.07C84.7319 8.03667 84.8586 7.98 84.9586 7.9C85.0653 7.82 85.1186 7.71667 85.1186 7.59C85.1186 7.43 85.0519 7.30667 84.9186 7.22C84.7919 7.13333 84.6219 7.06333 84.4086 7.01C84.2019 6.95667 83.9753 6.89667 83.7286 6.83C83.5019 6.77667 83.2753 6.71667 83.0486 6.65C82.8219 6.57667 82.6153 6.48333 82.4286 6.37C82.2486 6.25667 82.1019 6.11 81.9886 5.93C81.8753 5.74333 81.8186 5.51 81.8186 5.23C81.8186 4.95667 81.8786 4.72 81.9986 4.52C82.1186 4.31333 82.2819 4.14333 82.4886 4.01C82.7019 3.87667 82.9486 3.78 83.2286 3.72C83.5153 3.65333 83.8219 3.62 84.1486 3.62C84.4553 3.62 84.7419 3.65333 85.0086 3.72C85.2753 3.78 85.5086 3.87333 85.7086 4C85.9086 4.12 86.0653 4.27333 86.1786 4.46C86.2919 4.64 86.3486 4.84333 86.3486 5.07C86.3486 5.11667 86.3486 5.16 86.3486 5.2C86.3486 5.24 86.3453 5.26667 86.3386 5.28H85.0086V5.2C85.0086 5.08 84.9719 4.98 84.8986 4.9C84.8253 4.81333 84.7186 4.74667 84.5786 4.7C84.4453 4.65333 84.2819 4.63 84.0886 4.63C83.9553 4.63 83.8319 4.64 83.7186 4.66C83.6119 4.68 83.5186 4.71 83.4386 4.75C83.3586 4.79 83.2953 4.84 83.2486 4.9C83.2086 4.95333 83.1886 5.02 83.1886 5.1C83.1886 5.21333 83.2353 5.30667 83.3286 5.38C83.4286 5.44667 83.5586 5.50333 83.7186 5.55C83.8786 5.59667 84.0553 5.64667 84.2486 5.7C84.4886 5.76667 84.7386 5.83333 84.9986 5.9C85.2653 5.96 85.5119 6.04333 85.7386 6.15C85.9653 6.25667 86.1486 6.41 86.2886 6.61C86.4286 6.80333 86.4986 7.06667 86.4986 7.4C86.4986 7.72 86.4353 7.99 86.3086 8.21C86.1886 8.43 86.0186 8.60667 85.7986 8.74C85.5786 8.87333 85.3219 8.97 85.0286 9.03C84.7353 9.09 84.4186 9.12 84.0786 9.12ZM89.0752 9.12C88.7419 9.12 88.4719 9.06 88.2652 8.94C88.0586 8.82 87.9086 8.66 87.8152 8.46C87.7219 8.25333 87.6752 8.02667 87.6752 7.78V4.81H87.0252V3.74H87.7252L87.9852 2.24H89.0652V3.74H90.0252V4.81H89.0652V7.55C89.0652 7.71 89.1019 7.83333 89.1752 7.92C89.2486 8 89.3686 8.04 89.5352 8.04H90.0252V8.96C89.9452 8.98667 89.8519 9.01 89.7452 9.03C89.6386 9.05667 89.5252 9.07667 89.4052 9.09C89.2852 9.11 89.1752 9.12 89.0752 9.12ZM90.9232 9V3.74H92.0732L92.1832 4.56H92.2532C92.3199 4.38667 92.4065 4.23 92.5132 4.09C92.6199 3.94333 92.7532 3.82667 92.9132 3.74C93.0732 3.65333 93.2599 3.61 93.4732 3.61C93.5865 3.61 93.6899 3.62333 93.7832 3.65C93.8765 3.67 93.9465 3.69 93.9932 3.71V4.97H93.5632C93.3565 4.97 93.1732 5 93.0132 5.06C92.8599 5.11333 92.7299 5.2 92.6232 5.32C92.5165 5.44 92.4365 5.58667 92.3832 5.76C92.3365 5.93333 92.3132 6.13667 92.3132 6.37V9H90.9232ZM96.0144 9.12C95.841 9.12 95.6544 9.1 95.4544 9.06C95.261 9.02 95.0777 8.95 94.9044 8.85C94.731 8.74333 94.5877 8.59333 94.4744 8.4C94.3677 8.2 94.3144 7.94667 94.3144 7.64C94.3144 7.27333 94.3944 6.97 94.5544 6.73C94.7144 6.49 94.941 6.30333 95.2344 6.17C95.5344 6.03 95.891 5.93333 96.3044 5.88C96.7177 5.82667 97.1744 5.8 97.6744 5.8V5.41C97.6744 5.25667 97.6477 5.12333 97.5944 5.01C97.5477 4.89667 97.461 4.80667 97.3344 4.74C97.2144 4.67333 97.0444 4.64 96.8244 4.64C96.6044 4.64 96.4244 4.66667 96.2844 4.72C96.151 4.77333 96.0544 4.84333 95.9944 4.93C95.941 5.01 95.9144 5.1 95.9144 5.2V5.32H94.5644C94.5577 5.28667 94.5544 5.25667 94.5544 5.23C94.5544 5.19667 94.5544 5.15667 94.5544 5.11C94.5544 4.80333 94.6477 4.54 94.8344 4.32C95.021 4.09333 95.2844 3.92 95.6244 3.8C95.9644 3.68 96.361 3.62 96.8144 3.62C97.301 3.62 97.7077 3.68333 98.0344 3.81C98.3677 3.93667 98.621 4.12333 98.7944 4.37C98.9744 4.61667 99.0644 4.92667 99.0644 5.3V7.69C99.0644 7.81 99.0977 7.9 99.1644 7.96C99.2377 8.01333 99.3177 8.04 99.4044 8.04H99.7344V8.95C99.6677 8.98333 99.5644 9.01667 99.4244 9.05C99.2844 9.09 99.1144 9.11 98.9144 9.11C98.721 9.11 98.5477 9.08 98.3944 9.02C98.2477 8.96667 98.1244 8.89 98.0244 8.79C97.9244 8.68333 97.8544 8.55667 97.8144 8.41H97.7444C97.631 8.55 97.491 8.67333 97.3244 8.78C97.1644 8.88667 96.9744 8.97 96.7544 9.03C96.541 9.09 96.2944 9.12 96.0144 9.12ZM96.4844 8.07C96.671 8.07 96.8377 8.04333 96.9844 7.99C97.131 7.93 97.2544 7.85333 97.3544 7.76C97.4544 7.66 97.531 7.54 97.5844 7.4C97.6444 7.26 97.6744 7.11 97.6744 6.95V6.66C97.301 6.66 96.9677 6.68667 96.6744 6.74C96.381 6.78667 96.1477 6.87 95.9744 6.99C95.8077 7.11 95.7244 7.27667 95.7244 7.49C95.7244 7.61 95.7544 7.71333 95.8144 7.8C95.8744 7.88667 95.961 7.95333 96.0744 8C96.1877 8.04667 96.3244 8.07 96.4844 8.07ZM100.425 9V3.74H101.575L101.685 4.46H101.755C101.875 4.28667 102.018 4.13667 102.185 4.01C102.358 3.88333 102.552 3.78667 102.765 3.72C102.978 3.65333 103.212 3.62 103.465 3.62C103.812 3.62 104.115 3.68333 104.375 3.81C104.635 3.93667 104.835 4.13667 104.975 4.41C105.122 4.68333 105.195 5.04 105.195 5.48V9H103.805V5.7C103.805 5.53333 103.785 5.39333 103.745 5.28C103.705 5.16 103.645 5.06333 103.565 4.99C103.492 4.91 103.398 4.85333 103.285 4.82C103.172 4.78667 103.045 4.77 102.905 4.77C102.698 4.77 102.512 4.82 102.345 4.92C102.178 5.02 102.048 5.15667 101.955 5.33C101.862 5.50333 101.815 5.70333 101.815 5.93V9H100.425ZM108.571 9.12C108.204 9.12 107.874 9.08 107.581 9C107.287 8.92 107.037 8.81 106.831 8.67C106.624 8.52333 106.464 8.35 106.351 8.15C106.244 7.95 106.191 7.72333 106.191 7.47C106.191 7.44333 106.191 7.41667 106.191 7.39C106.191 7.36333 106.194 7.34333 106.201 7.33H107.541C107.541 7.34333 107.541 7.35667 107.541 7.37C107.541 7.38333 107.541 7.39667 107.541 7.41C107.547 7.57667 107.601 7.71333 107.701 7.82C107.801 7.92 107.931 7.99333 108.091 8.04C108.257 8.08667 108.431 8.11 108.611 8.11C108.771 8.11 108.924 8.09667 109.071 8.07C109.224 8.03667 109.351 7.98 109.451 7.9C109.557 7.82 109.611 7.71667 109.611 7.59C109.611 7.43 109.544 7.30667 109.411 7.22C109.284 7.13333 109.114 7.06333 108.901 7.01C108.694 6.95667 108.467 6.89667 108.221 6.83C107.994 6.77667 107.767 6.71667 107.541 6.65C107.314 6.57667 107.107 6.48333 106.921 6.37C106.741 6.25667 106.594 6.11 106.481 5.93C106.367 5.74333 106.311 5.51 106.311 5.23C106.311 4.95667 106.371 4.72 106.491 4.52C106.611 4.31333 106.774 4.14333 106.981 4.01C107.194 3.87667 107.441 3.78 107.721 3.72C108.007 3.65333 108.314 3.62 108.641 3.62C108.947 3.62 109.234 3.65333 109.501 3.72C109.767 3.78 110.001 3.87333 110.201 4C110.401 4.12 110.557 4.27333 110.671 4.46C110.784 4.64 110.841 4.84333 110.841 5.07C110.841 5.11667 110.841 5.16 110.841 5.2C110.841 5.24 110.837 5.26667 110.831 5.28H109.501V5.2C109.501 5.08 109.464 4.98 109.391 4.9C109.317 4.81333 109.211 4.74667 109.071 4.7C108.937 4.65333 108.774 4.63 108.581 4.63C108.447 4.63 108.324 4.64 108.211 4.66C108.104 4.68 108.011 4.71 107.931 4.75C107.851 4.79 107.787 4.84 107.741 4.9C107.701 4.95333 107.681 5.02 107.681 5.1C107.681 5.21333 107.727 5.30667 107.821 5.38C107.921 5.44667 108.051 5.50333 108.211 5.55C108.371 5.59667 108.547 5.64667 108.741 5.7C108.981 5.76667 109.231 5.83333 109.491 5.9C109.757 5.96 110.004 6.04333 110.231 6.15C110.457 6.25667 110.641 6.41 110.781 6.61C110.921 6.80333 110.991 7.06667 110.991 7.4C110.991 7.72 110.927 7.99 110.801 8.21C110.681 8.43 110.511 8.60667 110.291 8.74C110.071 8.87333 109.814 8.97 109.521 9.03C109.227 9.09 108.911 9.12 108.571 9.12ZM111.997 10.78V3.74H113.137L113.257 4.45H113.327C113.501 4.16333 113.727 3.95333 114.007 3.82C114.287 3.68667 114.597 3.62 114.937 3.62C115.377 3.62 115.754 3.71667 116.067 3.91C116.387 4.10333 116.631 4.40333 116.797 4.81C116.971 5.21667 117.057 5.74 117.057 6.38C117.057 7 116.971 7.51333 116.797 7.92C116.624 8.32667 116.381 8.63 116.067 8.83C115.761 9.02333 115.401 9.12 114.987 9.12C114.761 9.12 114.551 9.09333 114.357 9.04C114.164 8.99333 113.991 8.91667 113.837 8.81C113.684 8.70333 113.554 8.57333 113.447 8.42H113.387V10.78H111.997ZM114.507 7.98C114.787 7.98 115.007 7.92667 115.167 7.82C115.334 7.70667 115.454 7.54 115.527 7.32C115.601 7.09333 115.637 6.81667 115.637 6.49V6.26C115.637 5.92667 115.601 5.65 115.527 5.43C115.454 5.20333 115.334 5.03667 115.167 4.93C115.007 4.81667 114.787 4.76 114.507 4.76C114.247 4.76 114.034 4.82 113.867 4.94C113.701 5.06 113.577 5.23333 113.497 5.46C113.417 5.68667 113.377 5.96 113.377 6.28V6.45C113.377 6.68333 113.401 6.89667 113.447 7.09C113.494 7.27667 113.561 7.43667 113.647 7.57C113.741 7.70333 113.857 7.80667 113.997 7.88C114.137 7.94667 114.307 7.98 114.507 7.98ZM120.501 9.12C119.928 9.12 119.441 9.02333 119.041 8.83C118.641 8.63 118.338 8.32667 118.131 7.92C117.925 7.50667 117.821 6.99 117.821 6.37C117.821 5.73667 117.925 5.22 118.131 4.82C118.338 4.41333 118.641 4.11333 119.041 3.92C119.441 3.72 119.928 3.62 120.501 3.62C121.088 3.62 121.578 3.72 121.971 3.92C122.371 4.11333 122.675 4.41333 122.881 4.82C123.088 5.22 123.191 5.73667 123.191 6.37C123.191 6.99 123.088 7.50667 122.881 7.92C122.675 8.32667 122.371 8.63 121.971 8.83C121.578 9.02333 121.088 9.12 120.501 9.12ZM120.501 8.04C120.808 8.04 121.051 7.98333 121.231 7.87C121.418 7.75667 121.555 7.58333 121.641 7.35C121.728 7.11667 121.771 6.83 121.771 6.49V6.25C121.771 5.91 121.728 5.62333 121.641 5.39C121.555 5.15667 121.418 4.98333 121.231 4.87C121.051 4.75 120.808 4.69 120.501 4.69C120.201 4.69 119.958 4.75 119.771 4.87C119.591 4.98333 119.458 5.15667 119.371 5.39C119.285 5.62333 119.241 5.91 119.241 6.25V6.49C119.241 6.83 119.285 7.11667 119.371 7.35C119.458 7.58333 119.591 7.75667 119.771 7.87C119.958 7.98333 120.201 8.04 120.501 8.04ZM124.214 9V3.74H125.364L125.474 4.56H125.544C125.611 4.38667 125.698 4.23 125.804 4.09C125.911 3.94333 126.044 3.82667 126.204 3.74C126.364 3.65333 126.551 3.61 126.764 3.61C126.878 3.61 126.981 3.62333 127.074 3.65C127.168 3.67 127.238 3.69 127.284 3.71V4.97H126.854C126.648 4.97 126.464 5 126.304 5.06C126.151 5.11333 126.021 5.2 125.914 5.32C125.808 5.44 125.728 5.58667 125.674 5.76C125.628 5.93333 125.604 6.13667 125.604 6.37V9H124.214ZM129.583 9.12C129.25 9.12 128.98 9.06 128.773 8.94C128.566 8.82 128.416 8.66 128.323 8.46C128.23 8.25333 128.183 8.02667 128.183 7.78V4.81H127.533V3.74H128.233L128.493 2.24H129.573V3.74H130.533V4.81H129.573V7.55C129.573 7.71 129.61 7.83333 129.683 7.92C129.756 8 129.876 8.04 130.043 8.04H130.533V8.96C130.453 8.98667 130.36 9.01 130.253 9.03C130.146 9.05667 130.033 9.07667 129.913 9.09C129.793 9.11 129.683 9.12 129.583 9.12Z" fill="black"/>
<path d="M44.9397 20V13.14H46.3097L49.0697 16.84C49.1097 16.8867 49.1597 16.9533 49.2197 17.04C49.2797 17.12 49.3364 17.2 49.3897 17.28C49.443 17.36 49.4797 17.4233 49.4997 17.47H49.5497C49.5497 17.3567 49.5497 17.2467 49.5497 17.14C49.5497 17.0267 49.5497 16.9267 49.5497 16.84V13.14H50.9597V20H49.5897L46.7697 16.21C46.703 16.1167 46.633 16.0133 46.5597 15.9C46.4864 15.7867 46.433 15.7 46.3997 15.64H46.3497C46.3497 15.74 46.3497 15.84 46.3497 15.94C46.3497 16.0333 46.3497 16.1233 46.3497 16.21V20H44.9397ZM54.7788 20.12C54.2054 20.12 53.7188 20.0233 53.3188 19.83C52.9188 19.63 52.6154 19.3267 52.4088 18.92C52.2021 18.5067 52.0988 17.99 52.0988 17.37C52.0988 16.7367 52.2021 16.22 52.4088 15.82C52.6154 15.4133 52.9188 15.1133 53.3188 14.92C53.7188 14.72 54.2054 14.62 54.7788 14.62C55.3654 14.62 55.8554 14.72 56.2488 14.92C56.6488 15.1133 56.9521 15.4133 57.1588 15.82C57.3654 16.22 57.4688 16.7367 57.4688 17.37C57.4688 17.99 57.3654 18.5067 57.1588 18.92C56.9521 19.3267 56.6488 19.63 56.2488 19.83C55.8554 20.0233 55.3654 20.12 54.7788 20.12ZM54.7788 19.04C55.0854 19.04 55.3288 18.9833 55.5088 18.87C55.6954 18.7567 55.8321 18.5833 55.9188 18.35C56.0054 18.1167 56.0488 17.83 56.0488 17.49V17.25C56.0488 16.91 56.0054 16.6233 55.9188 16.39C55.8321 16.1567 55.6954 15.9833 55.5088 15.87C55.3288 15.75 55.0854 15.69 54.7788 15.69C54.4788 15.69 54.2354 15.75 54.0488 15.87C53.8688 15.9833 53.7354 16.1567 53.6488 16.39C53.5621 16.6233 53.5188 16.91 53.5188 17.25V17.49C53.5188 17.83 53.5621 18.1167 53.6488 18.35C53.7354 18.5833 53.8688 18.7567 54.0488 18.87C54.2354 18.9833 54.4788 19.04 54.7788 19.04ZM60.6216 20.12C60.2549 20.12 59.9249 20.08 59.6316 20C59.3382 19.92 59.0882 19.81 58.8816 19.67C58.6749 19.5233 58.5149 19.35 58.4016 19.15C58.2949 18.95 58.2416 18.7233 58.2416 18.47C58.2416 18.4433 58.2416 18.4167 58.2416 18.39C58.2416 18.3633 58.2449 18.3433 58.2516 18.33H59.5916C59.5916 18.3433 59.5916 18.3567 59.5916 18.37C59.5916 18.3833 59.5916 18.3967 59.5916 18.41C59.5982 18.5767 59.6516 18.7133 59.7516 18.82C59.8516 18.92 59.9816 18.9933 60.1416 19.04C60.3082 19.0867 60.4816 19.11 60.6616 19.11C60.8216 19.11 60.9749 19.0967 61.1216 19.07C61.2749 19.0367 61.4016 18.98 61.5016 18.9C61.6082 18.82 61.6616 18.7167 61.6616 18.59C61.6616 18.43 61.5949 18.3067 61.4616 18.22C61.3349 18.1333 61.1649 18.0633 60.9516 18.01C60.7449 17.9567 60.5182 17.8967 60.2716 17.83C60.0449 17.7767 59.8182 17.7167 59.5916 17.65C59.3649 17.5767 59.1582 17.4833 58.9716 17.37C58.7916 17.2567 58.6449 17.11 58.5316 16.93C58.4182 16.7433 58.3616 16.51 58.3616 16.23C58.3616 15.9567 58.4216 15.72 58.5416 15.52C58.6616 15.3133 58.8249 15.1433 59.0316 15.01C59.2449 14.8767 59.4916 14.78 59.7716 14.72C60.0582 14.6533 60.3649 14.62 60.6916 14.62C60.9982 14.62 61.2849 14.6533 61.5516 14.72C61.8182 14.78 62.0516 14.8733 62.2516 15C62.4516 15.12 62.6082 15.2733 62.7216 15.46C62.8349 15.64 62.8916 15.8433 62.8916 16.07C62.8916 16.1167 62.8916 16.16 62.8916 16.2C62.8916 16.24 62.8882 16.2667 62.8816 16.28H61.5516V16.2C61.5516 16.08 61.5149 15.98 61.4416 15.9C61.3682 15.8133 61.2616 15.7467 61.1216 15.7C60.9882 15.6533 60.8249 15.63 60.6316 15.63C60.4982 15.63 60.3749 15.64 60.2616 15.66C60.1549 15.68 60.0616 15.71 59.9816 15.75C59.9016 15.79 59.8382 15.84 59.7916 15.9C59.7516 15.9533 59.7316 16.02 59.7316 16.1C59.7316 16.2133 59.7782 16.3067 59.8716 16.38C59.9716 16.4467 60.1016 16.5033 60.2616 16.55C60.4216 16.5967 60.5982 16.6467 60.7916 16.7C61.0316 16.7667 61.2816 16.8333 61.5416 16.9C61.8082 16.96 62.0549 17.0433 62.2816 17.15C62.5082 17.2567 62.6916 17.41 62.8316 17.61C62.9716 17.8033 63.0416 18.0667 63.0416 18.4C63.0416 18.72 62.9782 18.99 62.8516 19.21C62.7316 19.43 62.5616 19.6067 62.3416 19.74C62.1216 19.8733 61.8649 19.97 61.5716 20.03C61.2782 20.09 60.9616 20.12 60.6216 20.12ZM66.1782 20.12C65.8115 20.12 65.4815 20.08 65.1882 20C64.8949 19.92 64.6449 19.81 64.4382 19.67C64.2315 19.5233 64.0715 19.35 63.9582 19.15C63.8515 18.95 63.7982 18.7233 63.7982 18.47C63.7982 18.4433 63.7982 18.4167 63.7982 18.39C63.7982 18.3633 63.8015 18.3433 63.8082 18.33H65.1482C65.1482 18.3433 65.1482 18.3567 65.1482 18.37C65.1482 18.3833 65.1482 18.3967 65.1482 18.41C65.1549 18.5767 65.2082 18.7133 65.3082 18.82C65.4082 18.92 65.5382 18.9933 65.6982 19.04C65.8649 19.0867 66.0382 19.11 66.2182 19.11C66.3782 19.11 66.5315 19.0967 66.6782 19.07C66.8315 19.0367 66.9582 18.98 67.0582 18.9C67.1649 18.82 67.2182 18.7167 67.2182 18.59C67.2182 18.43 67.1515 18.3067 67.0182 18.22C66.8915 18.1333 66.7215 18.0633 66.5082 18.01C66.3015 17.9567 66.0749 17.8967 65.8282 17.83C65.6015 17.7767 65.3749 17.7167 65.1482 17.65C64.9215 17.5767 64.7149 17.4833 64.5282 17.37C64.3482 17.2567 64.2015 17.11 64.0882 16.93C63.9749 16.7433 63.9182 16.51 63.9182 16.23C63.9182 15.9567 63.9782 15.72 64.0982 15.52C64.2182 15.3133 64.3815 15.1433 64.5882 15.01C64.8015 14.8767 65.0482 14.78 65.3282 14.72C65.6149 14.6533 65.9215 14.62 66.2482 14.62C66.5549 14.62 66.8415 14.6533 67.1082 14.72C67.3749 14.78 67.6082 14.8733 67.8082 15C68.0082 15.12 68.1649 15.2733 68.2782 15.46C68.3915 15.64 68.4482 15.8433 68.4482 16.07C68.4482 16.1167 68.4482 16.16 68.4482 16.2C68.4482 16.24 68.4449 16.2667 68.4382 16.28H67.1082V16.2C67.1082 16.08 67.0715 15.98 66.9982 15.9C66.9249 15.8133 66.8182 15.7467 66.6782 15.7C66.5449 15.6533 66.3815 15.63 66.1882 15.63C66.0549 15.63 65.9315 15.64 65.8182 15.66C65.7115 15.68 65.6182 15.71 65.5382 15.75C65.4582 15.79 65.3949 15.84 65.3482 15.9C65.3082 15.9533 65.2882 16.02 65.2882 16.1C65.2882 16.2133 65.3349 16.3067 65.4282 16.38C65.5282 16.4467 65.6582 16.5033 65.8182 16.55C65.9782 16.5967 66.1549 16.6467 66.3482 16.7C66.5882 16.7667 66.8382 16.8333 67.0982 16.9C67.3649 16.96 67.6115 17.0433 67.8382 17.15C68.0649 17.2567 68.2482 17.41 68.3882 17.61C68.5282 17.8033 68.5982 18.0667 68.5982 18.4C68.5982 18.72 68.5349 18.99 68.4082 19.21C68.2882 19.43 68.1182 19.6067 67.8982 19.74C67.6782 19.8733 67.4215 19.97 67.1282 20.03C66.8349 20.09 66.5182 20.12 66.1782 20.12ZM71.9948 20.12C71.4148 20.12 70.9282 20.0233 70.5348 19.83C70.1415 19.63 69.8448 19.3267 69.6448 18.92C69.4448 18.5133 69.3448 17.9967 69.3448 17.37C69.3448 16.7367 69.4448 16.22 69.6448 15.82C69.8448 15.4133 70.1382 15.1133 70.5248 14.92C70.9182 14.72 71.3982 14.62 71.9648 14.62C72.4982 14.62 72.9482 14.7167 73.3148 14.91C73.6815 15.0967 73.9582 15.39 74.1448 15.79C74.3315 16.1833 74.4248 16.6933 74.4248 17.32V17.68H70.7548C70.7682 17.9867 70.8148 18.2467 70.8948 18.46C70.9815 18.6733 71.1115 18.8333 71.2848 18.94C71.4648 19.04 71.7015 19.09 71.9948 19.09C72.1548 19.09 72.2982 19.07 72.4248 19.03C72.5582 18.99 72.6715 18.93 72.7648 18.85C72.8582 18.77 72.9315 18.67 72.9848 18.55C73.0382 18.43 73.0648 18.2933 73.0648 18.14H74.4248C74.4248 18.4733 74.3648 18.7633 74.2448 19.01C74.1248 19.2567 73.9582 19.4633 73.7448 19.63C73.5315 19.79 73.2748 19.9133 72.9748 20C72.6815 20.08 72.3548 20.12 71.9948 20.12ZM70.7748 16.8H72.9948C72.9948 16.6 72.9682 16.4267 72.9148 16.28C72.8682 16.1333 72.8015 16.0133 72.7148 15.92C72.6282 15.8267 72.5215 15.76 72.3948 15.72C72.2748 15.6733 72.1382 15.65 71.9848 15.65C71.7315 15.65 71.5182 15.6933 71.3448 15.78C71.1782 15.86 71.0482 15.9867 70.9548 16.16C70.8682 16.3267 70.8082 16.54 70.7748 16.8ZM75.4447 20V14.74H76.5947L76.7047 15.46H76.7747C76.8947 15.2867 77.038 15.1367 77.2047 15.01C77.378 14.8833 77.5714 14.7867 77.7847 14.72C77.998 14.6533 78.2314 14.62 78.4847 14.62C78.8314 14.62 79.1347 14.6833 79.3947 14.81C79.6547 14.9367 79.8547 15.1367 79.9947 15.41C80.1414 15.6833 80.2147 16.04 80.2147 16.48V20H78.8247V16.7C78.8247 16.5333 78.8047 16.3933 78.7647 16.28C78.7247 16.16 78.6647 16.0633 78.5847 15.99C78.5114 15.91 78.418 15.8533 78.3047 15.82C78.1914 15.7867 78.0647 15.77 77.9247 15.77C77.718 15.77 77.5314 15.82 77.3647 15.92C77.198 16.02 77.068 16.1567 76.9747 16.33C76.8814 16.5033 76.8347 16.7033 76.8347 16.93V20H75.4447Z" fill="black"/>
<path d="M7.58579 0H1C0.447715 0 0 0.447715 0 1V7.58579C0 7.851 0.105356 8.10536 0.292892 8.29289L13.7071 21.7071C13.8946 21.8946 14.149 22 14.4142 22H21C21.5523 22 22 21.5523 22 21V14.4142C22 14.149 21.8946 13.8946 21.7071 13.7071L8.29289 0.292893C8.10536 0.105357 7.851 0 7.58579 0Z" fill="#0F4C81"/>
<path d="M25.5858 0H19C18.4477 0 18 0.447715 18 1V7.58579C18 7.851 18.1054 8.10536 18.2929 8.29289L31.7071 21.7071C31.8946 21.8946 32.149 22 32.4142 22H39C39.5523 22 40 21.5523 40 21V14.4142C40 14.149 39.8946 13.8946 39.7071 13.7071L26.2929 0.292893C26.1054 0.105357 25.851 0 25.5858 0Z" fill="#638CC7"/>
</svg>
