<svg width="16" height="16" viewBox="0 0 16 16" fill="none" xmlns="http://www.w3.org/2000/svg">
<rect width="16" height="16" rx="2" fill="#212121"/>
<path d="M10.4074 7.16439L13 3.07048C13 3.07048 4.11111 2.32609 4.11111 5.67569C4.11111 9.56242 10.7778 7.5366 10.7778 10.1418C10.7778 12.747 4.48148 12.0026 4.48148 12.0026L5.59259 10.1418C5.59259 10.1418 8.55556 10.1418 8.18518 9.39743C8.18518 9.39743 6.7037 9.39756 5.59259 9.02525L3 12.747C3 12.747 11.8128 14.1087 11.8889 10.5139C11.8889 6.04787 5.70317 9.06074 5.22222 6.04787C4.85185 3.44268 11.5185 4.187 11.5185 4.187L10.4074 6.04787C10.4074 6.04787 7.44444 5.67583 7.81481 6.79221L10.4074 7.16439Z" fill="white"/>
</svg>
