<svg width="20" height="23" viewBox="0 0 20 23" fill="none" xmlns="http://www.w3.org/2000/svg">
<path d="M18.703 17.9773L11.446 22.246C11.137 22.4278 10.7542 22.4303 10.4429 22.2524L1.12699 16.929C0.680677 16.674 0.29357 16.3105 0.149747 15.817C-0.109344 14.9279 -0.21988 13.3729 1.44628 12.04C2.85301 10.9146 5.05128 10.8974 6.70491 11.0976C8.2135 11.2802 9.61242 11.9207 10.9318 12.6746L18.6975 17.1122C19.031 17.3027 19.034 17.7825 18.703 17.9773Z" fill="white"/>
<path d="M0.74331 4.56279L8.00026 0.293995C8.30933 0.112188 8.69208 0.109781 9.00342 0.287686L18.3193 5.61105C18.7656 5.86608 19.1527 6.22956 19.2965 6.72307C19.5556 7.6121 19.6662 9.16712 18 10.5C16.5933 11.6254 14.395 11.6426 12.7414 11.4424C11.2328 11.2598 9.83387 10.6194 8.51449 9.86544L0.748749 5.42788C0.41527 5.23732 0.412255 4.75753 0.74331 4.56279Z" fill="white"/>
</svg>
