<svg width="40" height="22" viewBox="0 0 40 22" fill="none" xmlns="http://www.w3.org/2000/svg">
<path d="M7.58579 0H1C0.447715 0 0 0.447715 0 1V7.58579C0 7.851 0.105356 8.10536 0.292892 8.29289L13.7071 21.7071C13.8946 21.8946 14.149 22 14.4142 22H21C21.5523 22 22 21.5523 22 21V14.4142C22 14.149 21.8946 13.8946 21.7071 13.7071L8.29289 0.292893C8.10536 0.105357 7.851 0 7.58579 0Z" fill="#0F4C81"/>
<path d="M25.5858 0H19C18.4477 0 18 0.447715 18 1V7.58579C18 7.851 18.1054 8.10536 18.2929 8.29289L31.7071 21.7071C31.8946 21.8946 32.149 22 32.4142 22H39C39.5523 22 40 21.5523 40 21V14.4142C40 14.149 39.8946 13.8946 39.7071 13.7071L26.2929 0.292893C26.1054 0.105357 25.851 0 25.5858 0Z" fill="#638CC7"/>
</svg>
