<svg width="128" height="128" viewBox="0 0 128 128" fill="none" xmlns="http://www.w3.org/2000/svg">
<g clip-path="url(#clip0_155_334)">
<path d="M101.364 63.4545C101.364 72.9394 99.7424 81.2727 96.5 88.4545C93.2576 95.6364 88.7424 101.242 82.9545 105.273C77.1667 109.273 70.4545 111.273 62.8182 111.273C55.1515 111.273 48.4242 109.258 42.6364 105.227C36.8485 101.197 32.3333 95.5909 29.0909 88.4091C25.8788 81.2273 24.2727 72.9091 24.2727 63.4545C24.2727 53.9697 25.8939 45.6515 29.1364 38.5C32.3788 31.3182 36.8939 25.7121 42.6818 21.6818C48.4697 17.6515 55.1818 15.6364 62.8182 15.6364C70.4545 15.6364 77.1667 17.6515 82.9545 21.6818C88.7424 25.6818 93.2576 31.2727 96.5 38.4545C99.7424 45.6364 101.364 53.9697 101.364 63.4545ZM98.4546 63.4545C98.4546 54.5455 96.9545 46.7273 93.9545 40C90.9545 33.2424 86.7727 27.9848 81.4091 24.2273C76.0758 20.4394 69.8788 18.5454 62.8182 18.5454C55.7879 18.5454 49.5909 20.4242 44.2273 24.1818C38.8939 27.9091 34.7121 33.1515 31.6818 39.9091C28.6818 46.6364 27.1818 54.4848 27.1818 63.4545C27.1818 72.303 28.6667 80.1061 31.6364 86.8636C34.6061 93.5909 38.7576 98.8636 44.0909 102.682C49.4545 106.47 55.697 108.364 62.8182 108.364C69.8788 108.364 76.0909 106.485 81.4545 102.727C86.8182 98.9394 91 93.6818 94 86.9545C97 80.197 98.4849 72.3636 98.4546 63.4545Z" fill="white"/>
</g>
<defs>
<clipPath id="clip0_155_334">
<rect width="128" height="128" fill="white"/>
</clipPath>
</defs>
</svg>
