<?xml version="1.0" standalone="no"?>
<!DOCTYPE svg PUBLIC "-//W3C//DTD SVG 20010904//EN"
 "http://www.w3.org/TR/2001/REC-SVG-20010904/DTD/svg10.dtd">
<svg version="1.0" xmlns="http://www.w3.org/2000/svg"
 width="700.000000pt" height="700.000000pt" viewBox="0 0 700.000000 700.000000"
 preserveAspectRatio="xMidYMid meet">
<metadata>
Created by potrace 1.14, written by Peter Selinger 2001-2017
</metadata>
<g transform="translate(0.000000,700.000000) scale(0.100000,-0.100000)"
fill="#000000" stroke="none">
<path d="M5048 6995 c-2 -1 -84 -6 -183 -10 -99 -4 -202 -8 -230 -10 -164 -9
-286 -16 -325 -20 -25 -2 -83 -6 -130 -10 -47 -3 -98 -8 -115 -9 -16 -2 -61
-6 -100 -10 -106 -10 -185 -19 -310 -36 -44 -5 -98 -12 -120 -15 -103 -13
-149 -20 -205 -30 -14 -3 -38 -7 -55 -9 -157 -25 -279 -48 -440 -82 -82 -18
-77 -17 -180 -42 -683 -167 -1191 -409 -1495 -712 -170 -169 -261 -311 -325
-507 -26 -78 -30 -94 -41 -172 -4 -25 -8 -55 -10 -66 -6 -31 -5 -231 2 -320 7
-103 45 -289 79 -391 39 -120 126 -290 196 -385 261 -353 687 -602 1326 -772
177 -47 483 -116 583 -132 19 -3 55 -10 80 -15 50 -11 88 -18 140 -25 19 -3
55 -10 80 -15 42 -9 117 -22 200 -35 19 -3 46 -8 60 -10 56 -11 77 -16 130
-24 139 -24 236 -42 252 -47 9 -2 40 -9 70 -14 29 -5 96 -18 148 -30 52 -11
106 -23 120 -26 36 -7 196 -50 260 -69 647 -194 938 -491 933 -955 -6 -589
-482 -998 -1403 -1205 -63 -14 -128 -28 -145 -31 -16 -2 -66 -11 -110 -19 -93
-17 -269 -41 -370 -51 -38 -3 -79 -8 -89 -10 -11 -2 -56 -6 -100 -9 -45 -3
-99 -8 -121 -10 -184 -20 -1068 -27 -1350 -12 -200 12 -416 26 -475 32 -19 2
-73 7 -120 11 -105 8 -108 9 -115 15 -3 3 6 23 20 43 14 20 25 39 25 42 0 2
11 23 26 45 14 22 33 55 43 72 23 39 652 1091 654 1094 1 0 90 4 197 8 107 4
220 8 250 10 108 6 246 16 280 20 19 2 62 7 95 10 53 5 115 12 260 31 22 3 47
7 55 9 8 2 31 7 50 10 77 12 150 28 240 52 214 57 336 124 387 210 21 36 25
53 21 94 -3 28 -10 55 -15 60 -6 6 -64 12 -129 14 -137 4 -331 14 -389 20 -22
2 -74 7 -115 10 -41 4 -82 8 -90 10 -8 2 -46 6 -83 10 -37 3 -76 8 -85 10 -9
1 -44 6 -77 10 -101 12 -253 37 -335 55 -25 5 -56 12 -70 14 -59 10 -214 49
-323 82 l-119 35 -21 -28 c-12 -15 -78 -109 -147 -208 -69 -99 -170 -243 -223
-320 -125 -179 -463 -664 -479 -689 -7 -10 -22 -31 -33 -45 -11 -14 -43 -60
-70 -101 -28 -41 -55 -81 -62 -90 -7 -8 -104 -148 -217 -310 -112 -162 -227
-326 -254 -365 -135 -192 -312 -446 -312 -448 0 -2 8 -3 18 -3 21 -1 112 -13
132 -19 8 -2 44 -6 80 -10 36 -4 76 -8 90 -10 110 -15 259 -31 365 -40 39 -4
81 -8 95 -10 14 -2 59 -7 100 -10 41 -3 95 -8 120 -10 76 -7 203 -17 250 -20
25 -1 90 -6 145 -9 348 -24 576 -30 1050 -30 407 -1 585 4 810 19 28 2 91 6
140 9 91 6 174 14 231 21 17 3 57 7 90 10 32 3 73 8 89 10 17 2 53 7 80 10 28
3 73 10 100 15 28 5 86 14 130 21 89 12 109 16 133 23 9 3 35 7 56 11 51 7
246 51 316 71 30 9 64 18 74 20 62 12 363 114 443 150 17 8 34 14 37 14 4 0
60 26 124 59 434 216 695 471 836 813 15 39 55 174 62 212 2 12 8 48 13 81 10
58 8 434 -3 485 -2 14 -7 48 -11 75 -11 92 -47 249 -80 350 -187 572 -634 922
-1390 1089 -38 8 -83 17 -100 20 -16 3 -39 8 -50 10 -11 2 -40 7 -65 11 -25 4
-52 9 -60 10 -91 16 -118 20 -195 30 -27 3 -60 8 -73 10 -13 2 -53 7 -90 10
-37 4 -74 8 -82 10 -8 2 -48 7 -89 10 -41 4 -82 8 -91 10 -9 2 -56 6 -106 10
-49 4 -91 9 -94 10 -3 2 -43 6 -90 10 -47 4 -93 9 -103 11 -10 2 -46 6 -80 9
-52 5 -178 21 -322 41 -58 7 -114 17 -240 39 -95 16 -274 63 -385 101 -285 97
-480 221 -633 405 -26 31 -47 59 -47 62 0 3 -13 25 -28 49 -60 90 -122 268
-148 423 -4 22 -7 85 -6 140 0 221 78 408 237 569 90 91 94 95 197 164 150
101 372 200 603 267 116 34 386 96 482 111 21 3 76 12 122 20 46 8 109 17 139
20 30 3 63 7 72 9 10 2 53 6 96 10 43 4 89 8 102 10 12 2 62 7 110 10 48 4
107 8 132 10 343 26 1149 25 1545 0 265 -18 337 -23 410 -30 96 -9 160 -16
162 -18 1 -2 -16 -32 -37 -67 -21 -36 -45 -76 -53 -90 -7 -14 -91 -155 -187
-315 -95 -159 -245 -411 -334 -559 l-160 -268 -80 7 c-45 4 -94 9 -111 11
-231 25 -823 25 -977 -1 -227 -38 -238 -40 -332 -71 -146 -47 -248 -116 -301
-202 -32 -53 -44 -158 -26 -225 l12 -43 93 -12 c52 -7 104 -15 117 -17 13 -2
60 -9 105 -15 44 -6 90 -12 101 -14 11 -3 44 -7 74 -11 30 -3 65 -8 79 -10 43
-8 81 -14 202 -30 65 -9 125 -18 135 -19 10 -2 41 -7 68 -10 28 -4 64 -9 80
-11 71 -11 172 -26 198 -30 15 -2 64 -9 110 -15 102 -14 145 -20 177 -25 134
-23 272 -37 279 -29 6 5 116 178 247 384 130 206 255 404 278 440 59 92 329
517 341 538 6 9 19 30 30 47 11 16 25 38 30 47 6 10 57 92 115 183 58 91 116
183 130 205 14 22 88 139 165 260 77 122 187 296 245 388 58 92 134 211 168
265 48 76 58 97 44 98 -9 1 -28 2 -42 3 -56 6 -223 16 -355 22 -77 3 -165 8
-195 10 -63 5 -1337 14 -1342 9z"/>
</g>
</svg>
